<svg xmlns="http://www.w3.org/2000/svg" viewBox="0 0 1024 1024"><defs><style>.cls-1{fill:#efefef;}.cls-2{fill:#5fe0b7;}.cls-2,.cls-3,.cls-4{fill-rule:evenodd;}.cls-3{fill:#fff;}</style></defs><g id="Layer_2" data-name="Layer 2"><rect id="background" class="cls-1" x="43.61" y="43.61" width="936.77" height="936.77" rx="169.85"/><g id="logo"><path class="cls-2" d="M747.75,192.77a122,122,0,1,1,0,244Z"/><path class="cls-3" d="M576.64,117.59V649.15A502.38,502.38,0,0,1,573,711.2q-3.56,28.47-11.65,48.81a217.93,217.93,0,0,1-36.11,59.41,223.06,223.06,0,0,1-53.36,45.74c-20.33,12.54-105.86,21.16-105.86,21.16l-.28,18.8S503,911,557.17,897.7c48.13-7.69,67.23-20,87.56-32.54a223.06,223.06,0,0,0,53.36-45.74A217.93,217.93,0,0,0,734.2,760q8.13-20.32,11.65-48.81a502.38,502.38,0,0,0,3.6-62.05V117.59Z"/><path class="cls-4" d="M422.39,117.59V646.18q0,88.44-55.91,88.42c-.22,0,.58-.1.36-.1l-2,170.58c1.94,0,4.77.32,6.72.32a280.24,280.24,0,0,0,77.83-10.7A270.3,270.3,0,0,0,517,865.16a223.06,223.06,0,0,0,53.36-45.74A217.93,217.93,0,0,0,606.42,760q8.13-20.32,11.65-48.81a502.38,502.38,0,0,0,3.6-62.05V117.59Z"/></g></g></svg>