<svg xmlns="http://www.w3.org/2000/svg" viewBox="0 0 1024 1024"><defs><style>.cls-1{fill:#d8d2bd;}.cls-2{fill:#5fe0b7;}.cls-2,.cls-3,.cls-4{fill-rule:evenodd;}.cls-3{fill:#f93eff;}.cls-4{fill:#2f3d81;}</style></defs><g id="Layer_3" data-name="Layer 3"><rect id="background" class="cls-1" x="29.69" y="46.77" width="936.77" height="936.77" rx="169.85"/><g id="logo"><path class="cls-2" d="M733.83,195.93a122,122,0,1,1,0,244Z"/><path class="cls-3" d="M562.72,120.74V652.3a502.14,502.14,0,0,1-3.6,62.05q-3.57,28.47-11.65,48.82a217.88,217.88,0,0,1-36.11,59.4A223.34,223.34,0,0,1,458,868.32c-20.33,12.53-105.85,21.15-105.85,21.15l-.29,18.8s137.22,5.88,191.4-7.41c48.13-7.7,67.22-20,87.55-32.54a223.34,223.34,0,0,0,53.37-45.75,217.88,217.88,0,0,0,36.11-59.4q8.13-20.32,11.65-48.82a502.14,502.14,0,0,0,3.6-62.05V120.74Z"/><path class="cls-4" d="M408.46,120.74v528.6q0,88.44-55.91,88.42c-.22,0,.59-.11.37-.11l-2,170.59c1.94,0,4.76.31,6.72.31a280.29,280.29,0,0,0,77.83-10.69A270.8,270.8,0,0,0,503,868.32a223.34,223.34,0,0,0,53.37-45.75,217.88,217.88,0,0,0,36.11-59.4q8.13-20.32,11.65-48.82a502.14,502.14,0,0,0,3.6-62.05V120.74Z"/></g></g></svg>